<svg width="16" height="16" fill="none" xmlns="http://www.w3.org/2000/svg"><path fill-rule="evenodd" clip-rule="evenodd" d="M4.66.048C5.504.008 5.773 0 7.927 0c2.153 0 2.423.01 3.268.048.844.039 1.42.175 1.925.372a3.897 3.897 0 0 1 1.404.923c.404.4.715.882.914 1.416.196.51.33 1.091.37 1.942.038.855.047 1.127.047 3.299 0 2.173-.01 2.445-.048 3.298-.038.851-.173 1.433-.369 1.942a3.928 3.928 0 0 1-.914 1.418 3.884 3.884 0 0 1-1.404.922c-.504.197-1.08.333-1.924.372-.846.04-1.116.048-3.27.048-2.153 0-2.422-.01-3.268-.048-.843-.038-1.42-.175-1.924-.372a3.886 3.886 0 0 1-1.405-.922 3.926 3.926 0 0 1-.914-1.417c-.195-.51-.33-1.091-.368-1.942C.008 10.444 0 10.172 0 8c0-2.173.01-2.445.048-3.297.038-.853.173-1.435.368-1.944.2-.533.512-1.017.915-1.416A3.883 3.883 0 0 1 2.734.42C3.24.223 3.815.087 4.66.048Zm6.472 1.44c-.837-.039-1.087-.047-3.204-.047s-2.368.008-3.204.047c-.773.036-1.192.166-1.472.276a2.46 2.46 0 0 0-.912.597 2.484 2.484 0 0 0-.592.92c-.11.283-.238.706-.273 1.486-.039.844-.047 1.097-.047 3.233s.008 2.39.047 3.233c.035.78.164 1.203.273 1.486.127.347.33.661.592.92.256.265.568.47.912.597.28.11.699.24 1.472.276.836.038 1.086.046 3.204.046 2.117 0 2.367-.008 3.204-.046.773-.036 1.192-.166 1.472-.276a2.46 2.46 0 0 0 .912-.598c.263-.258.465-.572.592-.92.109-.282.238-.705.273-1.485.038-.844.046-1.097.046-3.233s-.008-2.39-.046-3.233c-.035-.78-.164-1.203-.273-1.486a2.486 2.486 0 0 0-.592-.92 2.458 2.458 0 0 0-.912-.597c-.28-.11-.7-.24-1.472-.276Zm-4.217 8.978c.566.238 1.196.27 1.782.09a2.646 2.646 0 0 0 1.433-1.07 2.687 2.687 0 0 0-.332-3.373 2.642 2.642 0 0 0-2.13-.769A2.629 2.629 0 0 0 5.73 6.518a2.683 2.683 0 0 0 1.186 3.948ZM5.046 5.092a4.043 4.043 0 0 1 5.763 0A4.115 4.115 0 0 1 12.003 8a4.146 4.146 0 0 1-1.194 2.908 4.056 4.056 0 0 1-2.881 1.204 4.056 4.056 0 0 1-2.882-1.204A4.13 4.13 0 0 1 3.853 8c0-1.09.43-2.136 1.193-2.908Zm7.86-.592a.973.973 0 0 0 .232-1.072.974.974 0 0 0-.53-.536.956.956 0 0 0-1.064.234.977.977 0 0 0 .02 1.355.96.96 0 0 0 1.343.02Z" fill="#fff"/></svg>